<?xml version="1.0" encoding="UTF-8" standalone="no"?>
<!-- Created with Inkscape (http://www.inkscape.org/) -->

<svg
   xmlns:dc="http://purl.org/dc/elements/1.1/"
   xmlns:cc="http://creativecommons.org/ns#"
   xmlns:rdf="http://www.w3.org/1999/02/22-rdf-syntax-ns#"
   xmlns:svg="http://www.w3.org/2000/svg"
   xmlns="http://www.w3.org/2000/svg"
   xmlns:sodipodi="http://sodipodi.sourceforge.net/DTD/sodipodi-0.dtd"
   xmlns:inkscape="http://www.inkscape.org/namespaces/inkscape"
   width="368.22452"
   height="331.07248"
   id="svg3272"
   version="1.1"
   inkscape:version="0.48.5 r10040"
   sodipodi:docname="js-logo.svg">
  <defs
     id="defs3274" />
  <sodipodi:namedview
     id="base"
     pagecolor="#ffffff"
     bordercolor="#666666"
     borderopacity="1.0"
     inkscape:pageopacity="0.0"
     inkscape:pageshadow="2"
     inkscape:zoom="0.35"
     inkscape:cx="230.60316"
     inkscape:cy="309.18596"
     inkscape:document-units="px"
     inkscape:current-layer="layer1"
     showgrid="false"
     fit-margin-top="0"
     fit-margin-left="0"
     fit-margin-right="0"
     fit-margin-bottom="0"
     showborder="true"
     inkscape:showpageshadow="false"
     inkscape:window-width="1920"
     inkscape:window-height="1017"
     inkscape:window-x="-8"
     inkscape:window-y="-8"
     inkscape:window-maximized="1" />
  <metadata
     id="metadata3277">
    <rdf:RDF>
      <cc:Work
         rdf:about="">
        <dc:format>image/svg+xml</dc:format>
        <dc:type
           rdf:resource="http://purl.org/dc/dcmitype/StillImage" />
        <dc:title></dc:title>
      </cc:Work>
    </rdf:RDF>
  </metadata>
  <g
     inkscape:label="Layer 1"
     inkscape:groupmode="layer"
     id="layer1"
     transform="translate(-181.33221,-279.39996)">
    <path
       style="fill:#333333;fill-opacity:1"
       inkscape:connector-curvature="0"
       d="m 350.94121,591.93842 c -7.92491,-8.88176 -27.71464,-26.19525 -43.97695,-38.47598 -48.18221,-36.38635 -54.74006,-41.65266 -74.30308,-59.66572 -36.0653,-33.2098 -51.38175,-66.57381 -51.32883,-111.81375 0.0253,-22.08421 1.53049,-30.59249 7.71487,-43.6098 10.49321,-22.08547 25.94884,-38.49618 45.7094,-48.5337 13.99587,-7.10851 20.89838,-10.26713 44.27034,-10.39671 24.44841,-0.13515 29.59485,2.71569 43.97695,10.61648 17.50447,9.61643 35.52157,30.169 39.2464,44.76858 l 2.30029,9.01689 5.67236,-12.41839 c 32.05618,-70.17725 134.40138,-69.12719 170.01728,1.74394 11.2988,22.48244 12.5393,70.48796 2.5207,97.52942 -13.0697,35.27428 -37.6165,62.16671 -94.36156,103.37682 -37.21437,27.02655 -79.33232,67.91788 -82.26372,73.66109 -3.40377,6.66773 -0.16293,1.04576 -15.19445,-15.79917 z"
       id="path3173" />
  </g>
</svg>
