<?xml version="1.0" encoding="UTF-8" standalone="no"?>
<!-- Created with Inkscape (http://www.inkscape.org/) -->

<svg
   xmlns:dc="http://purl.org/dc/elements/1.1/"
   xmlns:cc="http://creativecommons.org/ns#"
   xmlns:rdf="http://www.w3.org/1999/02/22-rdf-syntax-ns#"
   xmlns:svg="http://www.w3.org/2000/svg"
   xmlns="http://www.w3.org/2000/svg"
   xmlns:sodipodi="http://sodipodi.sourceforge.net/DTD/sodipodi-0.dtd"
   xmlns:inkscape="http://www.inkscape.org/namespaces/inkscape"
   width="330.71875"
   height="330.71875"
   id="svg3272"
   version="1.1"
   inkscape:version="0.48.5 r10040"
   sodipodi:docname="css3-logo.svg">
  <defs
     id="defs3274" />
  <sodipodi:namedview
     id="base"
     pagecolor="#ffffff"
     bordercolor="#666666"
     borderopacity="1.0"
     inkscape:pageopacity="0.0"
     inkscape:pageshadow="2"
     inkscape:zoom="0.35"
     inkscape:cx="205.93467"
     inkscape:cy="78.658595"
     inkscape:document-units="px"
     inkscape:current-layer="layer1"
     showgrid="false"
     fit-margin-top="0"
     fit-margin-left="0"
     fit-margin-right="0"
     fit-margin-bottom="0"
     showborder="true"
     inkscape:showpageshadow="false"
     inkscape:window-width="1920"
     inkscape:window-height="1017"
     inkscape:window-x="-8"
     inkscape:window-y="-8"
     inkscape:window-maximized="1" />
  <metadata
     id="metadata3277">
    <rdf:RDF>
      <cc:Work
         rdf:about="">
        <dc:format>image/svg+xml</dc:format>
        <dc:type
           rdf:resource="http://purl.org/dc/dcmitype/StillImage" />
        <dc:title></dc:title>
      </cc:Work>
    </rdf:RDF>
  </metadata>
  <g
     inkscape:label="Layer 1"
     inkscape:groupmode="layer"
     id="layer1"
     transform="translate(-206.0007,-277.79775)">
    <g
       transform="translate(160.0632,811.89148)"
       id="g3219">
      <path
         style="fill:#010101;fill-opacity:1"
         d="m 45.9375,-534.09373 0,165.34375 0,165.375 165.34375,0 165.375,0 0,-165.375 0,-165.34375 -165.375,0 -165.34375,0 z m 253.59375,150.375 c 10.76799,0.059 19.49341,2.56557 27.125,7.71875 5.87588,3.96766 14.18736,13.38296 14.15625,16.0625 -0.0229,1.97182 -19.43801,14.625 -22.4375,14.625 -1.25054,0 -2.94833,-1.28742 -3.78125,-2.84375 -2.53001,-4.72737 -9.67277,-8.18188 -16.9375,-8.1875 -8.53524,-0.007 -14.71875,5.38112 -14.71875,12.8125 0,7.95563 4.2393,11.43556 27.0625,22.34375 32.47027,15.51894 40.46797,25.19879 40.4375,48.8125 -0.0233,18.01682 -7.76503,29.8789 -24.71875,37.8125 -7.97529,3.73209 -10.51845,4.1902 -24.125,4.53125 -9.5934,0.24046 -17.49494,-0.26589 -21.40625,-1.40625 -7.52015,-2.19252 -17.04231,-6.98646 -23.09375,-11.59375 -5.44607,-4.1464 -12.75,-13.80511 -12.75,-16.875 0,-1.73358 14.90617,-11.75731 21.96875,-14.78125 0.4544,-0.19457 4.24392,2.90675 8.40625,6.90625 8.06772,7.75209 14.7903,10.65625 24.625,10.65625 11.81031,0 19.96875,-6.53974 19.96875,-16 0,-4.87118 -4.73226,-11.15487 -10.59375,-14.03125 -1.66606,-0.81757 -10.80765,-5.19713 -20.28125,-9.71875 -26.66182,-12.72531 -34.40107,-22.02803 -35.53125,-42.625 -0.77459,-14.11649 1.73834,-21.58136 10.34375,-30.78125 8.04805,-8.60402 17.34108,-12.52186 31.53125,-13.3125 1.62358,-0.0905 3.21172,-0.13343 4.75,-0.125 z m -86.0625,1.40625 c 7.86796,-0.1071 11.08856,0.32777 11.8125,1.46875 1.72657,2.72124 1.42046,106.18171 -0.34375,116.3125 -2.9852,17.14233 -14.72199,30.14529 -30.21875,33.46875 -9.59831,2.05847 -24.12874,1.72474 -32.1875,-0.75 -3.69547,-1.13482 -8.97217,-3.49198 -11.71875,-5.25 -8.57529,-5.48888 -17.65588,-16.94901 -16.28125,-20.53125 0.39592,-1.03176 5.83052,-4.87769 12.0625,-8.53125 l 11.3125,-6.625 2.90625,4.03125 c 6.92881,9.6 13.1833,12.70871 22.125,11.03125 2.47215,-0.46379 5.98605,-2.43176 7.8125,-4.375 l 3.3125,-3.53125 0.6875,-58.125 0.6875,-58.125 14.34375,-0.375 c 1.31966,-0.0363 2.56351,-0.0785 3.6875,-0.0937 z"
         id="path3223"
         inkscape:connector-curvature="0" />
    </g>
  </g>
</svg>
